<?xml version="1.0" standalone="no"?>
<!DOCTYPE svg PUBLIC "-//W3C//DTD SVG 20010904//EN"
 "http://www.w3.org/TR/2001/REC-SVG-20010904/DTD/svg10.dtd">
<svg version="1.0" xmlns="http://www.w3.org/2000/svg"
 width="626.000000pt" height="626.000000pt" viewBox="0 0 626.000000 626.000000"
 preserveAspectRatio="xMidYMid meet">
<metadata>
Created by potrace 1.11, written by Peter Selinger 2001-2013
</metadata>
<g transform="translate(0.000000,626.000000) scale(0.100000,-0.100000)"
fill="#000000" stroke="none">
<path d="M0 3130 l0 -3130 3130 0 3130 0 0 3130 0 3130 -3130 0 -3130 0 0
-3130z m2218 2598 c-2 -40 -7 -73 -13 -73 -5 0 -11 33 -13 73 -2 60 0 72 13
72 13 0 15 -12 13 -72z m-183 -68 c42 -43 46 -50 30 -56 -13 -6 -29 5 -62 39
-39 41 -48 67 -25 67 4 0 30 -22 57 -50z m410 40 c9 -14 -74 -100 -96 -100
-28 0 -24 9 28 62 49 50 58 55 68 38z m2875 -105 c0 -69 -3 -85 -15 -85 -12 0
-15 16 -15 85 0 69 3 85 15 85 12 0 15 -16 15 -85z m-1202 -12 c19 -9 44 -31
55 -49 18 -28 26 -32 47 -26 39 10 86 5 113 -13 35 -23 60 -80 54 -121 -4 -26
-2 -34 9 -34 26 0 64 -47 64 -79 0 -67 -35 -91 -132 -91 l-64 0 4 -40 c3 -33
-1 -44 -26 -70 l-30 -30 -359 0 c-337 0 -360 1 -390 20 -46 28 -67 65 -67 120
0 28 7 58 18 74 21 32 73 66 102 66 19 0 22 7 26 54 5 65 35 114 93 153 52 35
142 42 199 15 l40 -18 30 34 c56 60 133 73 214 35z m-1849 3 c15 -8 33 -21 40
-29 9 -11 26 -14 71 -10 77 7 137 -15 184 -68 20 -21 36 -44 36 -49 0 -7 6 -7
19 0 37 19 113 12 153 -15 45 -30 74 -97 64 -150 -6 -28 -4 -35 10 -35 26 0
84 -65 84 -94 0 -35 -25 -83 -49 -96 -13 -6 -152 -10 -380 -10 l-359 0 -32 26
c-55 47 -75 115 -49 167 21 41 62 77 96 83 41 8 42 18 4 34 -74 30 -108 110
-78 183 28 67 119 97 186 63z m2830 -68 c50 -52 63 -78 39 -78 -17 0 -118 101
-118 117 0 27 30 11 79 -39z m491 40 c0 -17 -101 -118 -117 -118 -27 0 -11 32
39 80 51 49 78 62 78 38z m-4632 -30 c27 -12 57 -38 75 -64 25 -35 33 -41 48
-34 26 15 96 12 127 -4 15 -8 38 -26 52 -41 21 -23 25 -36 25 -91 0 -61 1 -64
27 -69 69 -16 92 -113 39 -166 l-29 -29 -359 0 c-337 0 -360 1 -390 20 -85 51
-85 189 0 240 18 11 42 20 55 20 19 0 22 5 22 35 0 149 170 250 308 183z
m1055 -63 c-4 -15 -135 -13 -141 3 -3 10 13 12 70 10 42 -2 72 -7 71 -13z
m3376 -43 c52 -38 73 -82 69 -142 -2 -34 -12 -66 -23 -83 -24 -32 -91 -67
-130 -67 -39 0 -106 35 -129 67 -26 36 -33 121 -13 159 45 87 155 119 226 66z
m-3314 -92 c9 -14 -74 -100 -96 -100 -28 0 -24 9 28 62 49 50 58 55 68 38z
m3003 -42 c3 -16 -6 -18 -77 -18 -44 0 -83 5 -86 10 -14 23 9 31 83 28 64 -3
77 -6 80 -20z m617 2 c0 -12 -17 -16 -82 -18 -65 -2 -83 0 -83 11 0 24 13 28
90 25 59 -2 75 -6 75 -18z m-545 -173 c0 -18 -93 -107 -112 -107 -29 0 -21 15
39 73 54 52 73 61 73 34z m402 -52 c42 -45 46 -55 20 -55 -27 0 -116 95 -108
116 6 16 8 15 29 -2 12 -11 39 -37 59 -59z m-232 -86 c0 -64 -3 -79 -15 -79
-12 0 -15 15 -15 78 0 43 3 82 6 85 17 16 24 -10 24 -84z m-4362 -871 c27 -12
57 -38 75 -64 25 -35 33 -41 48 -34 30 17 102 11 137 -10 50 -31 73 -76 70
-137 -3 -50 -2 -53 24 -59 69 -15 92 -112 39 -165 l-29 -29 -359 0 c-337 0
-360 1 -390 20 -59 36 -82 125 -48 191 18 34 69 69 103 69 19 0 22 5 22 35 0
149 170 250 308 183z m1472 -12 c23 -15 50 -42 61 -61 18 -30 23 -33 45 -24
43 16 99 10 134 -13 56 -39 74 -72 74 -133 -1 -50 1 -55 27 -64 36 -12 63 -55
63 -99 0 -26 -8 -41 -33 -64 l-32 -29 -364 3 -364 3 -31 30 c-41 40 -57 93
-41 144 13 44 60 89 101 98 24 4 29 11 35 52 12 84 71 158 143 182 52 16 137
5 182 -25z m1426 15 c22 -10 56 -36 75 -59 l34 -40 65 5 c57 4 69 2 100 -19
48 -32 72 -82 67 -139 -4 -45 -3 -47 30 -58 65 -24 84 -112 34 -162 l-29 -29
-357 0 c-386 0 -390 1 -434 56 -60 77 -23 185 76 219 36 12 38 16 44 63 4 28
16 66 28 85 19 32 76 78 111 90 34 12 117 6 156 -12z m1463 -7 c33 -17 62 -41
78 -65 22 -34 28 -37 50 -28 103 39 207 -37 201 -148 -3 -47 -1 -53 20 -58 72
-18 96 -113 43 -166 l-29 -29 -359 0 c-334 0 -360 1 -387 19 -66 44 -86 131
-46 196 20 32 72 65 104 65 11 0 16 9 16 28 0 80 52 160 125 193 58 27 121 24
184 -7z m-2879 -564 c0 -6 -7 -27 -15 -47 -8 -19 -15 -37 -15 -39 0 -1 20 -4
44 -6 l45 -3 -81 -108 c-44 -59 -82 -106 -85 -104 -2 2 6 33 17 68 11 35 20
67 20 72 0 4 -16 7 -36 7 -32 0 -35 2 -29 23 27 87 39 124 48 135 11 15 87 16
87 2z m2910 -4 c0 -7 -7 -33 -15 -56 -8 -23 -15 -44 -15 -46 0 -2 23 -4 51 -6
l52 -3 -99 -132 c-54 -73 -99 -131 -100 -130 -2 1 8 40 22 87 13 46 24 88 24
92 0 4 -18 8 -40 8 -22 0 -40 3 -40 7 0 5 14 50 31 100 l31 93 49 0 c35 0 49
-4 49 -14z m-4581 -198 c-32 -27 -74 -23 -98 8 -38 48 -22 82 62 139 l52 35 3
-82 c3 -75 1 -85 -19 -100z m360 0 c-32 -27 -74 -23 -98 8 -38 48 -22 82 62
139 l52 35 3 -82 c3 -75 1 -85 -19 -100z m4560 94 c1 -52 -11 -90 -33 -104
-21 -14 -66 -8 -86 12 -42 42 -19 92 75 158 27 19 31 19 37 4 4 -9 7 -41 7
-70z m-4719 3 c0 -62 -4 -79 -20 -95 -56 -56 -147 11 -110 81 13 23 99 88 118
89 8 0 12 -22 12 -75z m4090 0 c0 -62 -4 -79 -20 -95 -56 -56 -147 11 -110 81
13 23 99 88 118 89 8 0 12 -22 12 -75z m-1380 50 c17 -21 5 -45 -24 -45 -28 0
-37 17 -24 43 11 21 31 22 48 2z m195 -15 c0 -18 -6 -26 -23 -28 -27 -4 -40
22 -22 44 19 22 45 13 45 -16z m195 15 c17 -20 5 -45 -20 -45 -23 0 -35 22
-26 45 7 19 30 19 46 0z m-296 -128 c8 -12 7 -21 -5 -32 -21 -21 -49 -9 -49
20 0 36 34 44 54 12z m210 0 c8 -12 7 -21 -5 -32 -21 -21 -49 -9 -49 20 0 36
34 44 54 12z m-106 -136 c4 -29 -15 -43 -40 -30 -21 11 -23 30 -6 47 19 19 43
10 46 -17z m-1220 -341 c51 -23 54 -31 8 -23 -139 22 -218 -144 -115 -243 26
-25 38 -29 89 -29 52 0 57 -2 44 -16 -12 -13 -10 -19 16 -44 36 -35 54 -85 46
-130 -6 -29 -4 -34 16 -40 63 -19 93 -88 63 -145 -30 -59 -49 -61 -423 -58
-316 3 -339 4 -371 23 -66 39 -90 129 -51 193 21 34 74 72 101 72 12 0 18 13
23 48 16 120 118 201 237 188 l59 -6 0 45 c0 141 129 224 258 165z m-1658 -50
c19 -19 20 -33 20 -268 l0 -248 43 -31 c80 -56 108 -160 68 -249 -63 -138
-238 -165 -338 -51 -41 47 -57 98 -50 160 8 60 42 116 91 147 l36 22 0 249 c0
236 1 250 20 269 12 12 33 20 55 20 22 0 43 -8 55 -20z m4513 -124 c31 -16 65
-38 74 -49 18 -19 17 -19 -7 -11 -14 5 -61 9 -105 9 -69 0 -86 -4 -126 -27
-92 -54 -143 -142 -143 -248 0 -84 28 -144 96 -205 77 -69 166 -90 261 -61 26
8 47 13 47 11 0 -1 -24 -19 -52 -39 -147 -100 -337 -80 -463 48 -71 73 -98
143 -99 251 0 108 33 183 115 260 82 75 139 96 255 92 76 -2 99 -7 147 -31z
m-1438 -46 c0 -12 -21 -16 -113 -18 l-113 -3 29 -33 c16 -19 32 -40 34 -46 3
-10 9 -10 25 -1 13 6 72 11 147 11 105 0 126 -2 126 -15 0 -8 -6 -15 -12 -16
-57 -4 -74 -6 -80 -7 -4 -1 2 -20 13 -42 15 -28 20 -53 17 -85 l-3 -44 95 -3
c77 -2 95 -6 95 -18 0 -11 -15 -16 -57 -20 -48 -4 -56 -7 -48 -20 5 -8 10 -28
10 -45 0 -16 -5 -37 -10 -45 -8 -13 0 -16 48 -20 42 -4 57 -9 57 -20 0 -13
-55 -15 -437 -15 -425 0 -437 1 -464 21 -50 37 -69 71 -68 124 1 66 38 116
100 132 42 12 44 14 44 49 0 50 12 79 52 124 60 69 86 75 313 72 170 -2 200
-4 200 -17z m260 0 c0 -12 -18 -15 -105 -15 -93 0 -105 2 -108 18 -3 16 5 17
105 15 88 -2 108 -6 108 -18z m5 -105 c0 -11 -12 -15 -45 -15 -42 0 -54 7 -38
23 3 4 24 7 45 7 27 0 38 -4 38 -15z m-3343 -1177 c23 -21 23 -23 23 -268 l0
-246 46 -38 c120 -101 108 -273 -25 -343 -166 -87 -353 77 -287 252 16 41 84
115 106 115 6 0 10 91 10 252 0 245 1 252 22 275 28 30 74 30 105 1z m1433
-94 l0 -46 35 31 c37 32 58 32 76 0 8 -17 1 -29 -50 -83 -60 -62 -61 -64 -61
-119 0 -32 4 -57 8 -57 22 0 41 39 44 90 3 47 6 55 23 55 15 0 21 -8 23 -28 3
-28 4 -28 23 -11 18 16 21 17 36 1 16 -15 15 -18 -1 -36 -17 -19 -17 -20 11
-23 20 -2 28 -8 28 -23 0 -17 -8 -20 -56 -23 -41 -2 -62 -8 -74 -22 -20 -22
-22 -21 57 -23 45 0 51 3 108 57 52 49 62 56 80 46 27 -14 25 -42 -5 -70 -33
-31 -32 -40 7 -35 38 5 58 -9 58 -40 0 -26 -17 -35 -63 -35 l-31 0 27 -28 c32
-34 34 -57 6 -73 -19 -10 -28 -5 -78 45 l-57 56 -63 0 c-63 0 -64 0 -46 -20
12 -14 33 -20 74 -22 48 -3 56 -6 56 -23 0 -14 -8 -21 -29 -25 -26 -4 -27 -6
-13 -19 10 -7 17 -20 17 -28 0 -22 -29 -27 -50 -8 -18 16 -19 16 -22 -12 -2
-20 -8 -28 -23 -28 -17 0 -20 8 -23 55 -3 51 -22 90 -44 90 -4 0 -8 -27 -8
-61 0 -60 0 -61 59 -122 59 -63 64 -79 31 -97 -15 -8 -26 -4 -55 21 l-35 31 0
-47 c0 -46 0 -46 -32 -43 -31 3 -33 5 -36 47 l-3 44 -34 -33 c-34 -33 -35 -33
-55 -15 -11 10 -20 23 -20 29 0 7 25 36 55 66 l55 54 0 65 c0 63 0 64 -20 46
-14 -12 -20 -33 -22 -74 -3 -48 -6 -56 -23 -56 -15 0 -21 8 -23 28 -3 28 -4
28 -22 12 -21 -19 -50 -14 -50 8 0 8 7 21 17 28 14 13 13 15 -13 19 -21 4 -29
11 -29 25 0 17 8 20 56 23 41 2 62 8 74 22 18 20 17 20 -46 20 -64 0 -66 -1
-109 -46 -61 -62 -77 -70 -101 -48 -24 22 -24 26 6 63 l26 30 -38 3 c-34 3
-38 6 -41 32 -4 33 11 46 44 40 33 -6 37 10 9 36 -31 29 -31 44 -3 64 22 15
25 14 78 -38 54 -53 57 -55 115 -56 82 -2 80 -3 60 20 -12 14 -33 20 -74 22
-48 3 -56 6 -56 23 0 14 8 21 29 25 26 4 27 6 13 19 -10 7 -17 20 -17 28 0 22
29 27 50 8 18 -16 19 -16 22 12 2 20 8 28 23 28 17 0 20 -8 23 -56 2 -41 8
-62 22 -74 20 -18 20 -17 20 46 l0 65 -55 54 c-30 30 -55 60 -55 67 0 6 10 19
22 27 21 15 24 14 55 -16 l33 -32 0 40 c0 48 4 54 42 54 27 0 28 -2 28 -46z
m2979 6 c129 -50 243 -134 309 -227 l23 -32 -38 15 c-43 18 -105 15 -152 -9
-29 -15 -35 -14 -78 5 -32 14 -58 19 -85 15 -69 -9 -68 -5 -68 -251 0 -251 -4
-266 -65 -266 -42 0 -65 22 -65 62 0 35 22 34 30 -3 5 -19 12 -24 35 -24 l30
0 3 231 2 232 -31 11 c-45 16 -78 13 -126 -9 -39 -17 -45 -18 -74 -3 -47 24
-109 27 -152 9 l-38 -15 33 46 c61 85 195 178 321 223 72 26 96 24 186 -10z
m-1350 -138 c1 -44 -3 -57 -24 -77 -47 -48 -115 -19 -115 48 0 36 16 55 85
101 l40 26 7 -22 c3 -13 6 -47 7 -76z m31 -204 c0 -55 -4 -72 -20 -88 -43 -43
-120 -11 -120 48 0 29 32 66 95 109 38 27 45 17 45 -69z m-210 7 c0 -62 -4
-79 -20 -95 -45 -45 -124 -10 -118 53 2 24 15 41 56 74 75 61 82 59 82 -32z
m-146 -186 c14 -70 3 -131 -28 -151 -6 -4 -24 -8 -40 -8 -70 0 -89 74 -33 127
34 32 77 63 88 63 4 0 9 -14 13 -31z m190 9 c3 -13 6 -47 6 -75 0 -63 -23 -93
-72 -93 -68 0 -93 74 -40 121 32 30 84 68 93 69 4 0 9 -10 13 -22z m182 -24
c8 -59 -1 -116 -23 -131 -9 -7 -30 -13 -47 -13 -70 0 -90 74 -33 127 35 33 77
63 89 63 4 0 10 -20 14 -46z"/>
<path d="M909 2518 c-1 -220 -2 -229 -25 -243 -70 -42 -104 -92 -104 -155 0
-57 22 -103 66 -136 32 -25 46 -29 100 -29 48 0 69 5 91 21 102 76 99 211 -7
282 l-35 23 -5 212 -5 212 -37 3 -38 3 -1 -193z m62 -348 c14 0 39 -57 39 -88
0 -39 -17 -52 -65 -52 -48 0 -65 13 -65 52 0 32 25 88 40 88 5 0 12 10 16 23
l7 22 10 -22 c6 -13 14 -23 18 -23z"/>
<path d="M910 866 c0 -30 -5 -37 -42 -58 -60 -33 -90 -88 -85 -156 11 -159
204 -209 301 -79 16 22 21 43 21 90 0 74 -25 116 -86 147 -34 18 -39 25 -39
55 0 33 -2 35 -35 35 -33 0 -35 -2 -35 -34z m50 -153 c0 -21 3 -24 12 -15 14
14 48 16 48 3 0 -6 -10 -17 -22 -25 l-22 -16 22 -16 c32 -22 28 -38 -8 -30
-25 5 -30 2 -30 -14 0 -11 -7 -20 -15 -20 -8 0 -15 9 -15 20 0 16 -5 19 -30
14 -36 -8 -40 8 -8 30 l22 16 -22 16 c-12 8 -22 19 -22 25 0 13 34 11 48 -3 9
-9 12 -6 12 15 0 17 5 27 15 27 10 0 15 -10 15 -27z"/>
</g>
</svg>
